# xmcd CD Database Entry
#
# Track frame offsets:
# 150
# 17615
# 36459
# 54492
# 72676
# 87190
# 102437
# 122957
# 140231
# 157541
# 175343
#
# Disc length: 2548 seconds
#
# Revision: 13
# Processed by: cddbd v1.4PL0 Copyright (c) Steve Scherf et al.
# Submitted via: tcd 2.0b
#
DISCID=9a09f20b
DTITLE=A.5 - A.5
DYEAR=2000
DGENRE=
TTITLE0=Baila
TTITLE1=Como Saber
TTITLE2=Ahora Que No Estas
TTITLE3=Dime Que
TTITLE4=Ves Como Es
TTITLE5=Una Ilusion
TTITLE6=Ya No Quiero Estar Solo
TTITLE7=Alguien Me Ama Mas Que Tu
TTITLE8=Rendido Ante Tí
TTITLE9=Tontas Palabras
TTITLE10=Estar Contigo
EXTD=YEAR: 2000
EXTT0=
EXTT1=
EXTT2=
EXTT3=
EXTT4=
EXTT5=
EXTT6=
EXTT7=
EXTT8=
EXTT9=
EXTT10=
PLAYORDER=
